<svg width="224" height="190" viewBox="0 0 224 190" fill="none" xmlns="http://www.w3.org/2000/svg">
<path d="M95.5 20L79.5 4" stroke="#FAB300" stroke-width="10"/>
<path d="M130 20L146 4" stroke="#FAB300" stroke-width="10"/>
<path d="M78.6699 47.5L77.2265 50L78.6699 52.5L93.4199 78.0477L94.8632 80.5477H97.75H127.25H130.137L131.58 78.0477L146.33 52.5L147.774 50L146.33 47.5L131.58 21.9523L130.137 19.4523H127.25H97.75H94.8632L93.4199 21.9523L78.6699 47.5Z" stroke="#FAB300" stroke-width="10"/>
<path d="M148.17 78L146.726 80.5L148.17 83L162.92 108.548L164.363 111.048H167.25H196.75H199.637L201.08 108.548L215.83 83L217.274 80.5L215.83 78L201.08 52.4523L199.637 49.9523H196.75H167.25H164.363L162.92 52.4523L148.17 78Z" stroke="#FAB300" stroke-width="10"/>
<path d="M8.16987 78L6.7265 80.5L8.16987 83L22.9199 108.548L24.3632 111.048H27.25H56.75H59.6368L61.0801 108.548L75.8301 83L77.2735 80.5L75.8301 78L61.0801 52.4523L59.6368 49.9523H56.75H27.25H24.3632L22.9199 52.4523L8.16987 78Z" stroke="#FAB300" stroke-width="10"/>
<path d="M77 110L94 81H129.5L147 110H77Z" stroke="#FAB300" stroke-width="10"/>
<path d="M128.5 150L146.5 119.5H77L94.5 150H128.5Z" stroke="#FAB300" stroke-width="10"/>
<path d="M112 179.5L128.5 150.5H95L112 179.5Z" stroke="#FAB300" stroke-width="10"/>
</svg>
